<svg width="28" height="28" viewBox="0 0 28 28" fill="none" xmlns="http://www.w3.org/2000/svg">
<path d="M11.5861 25.8462C11.5861 26.2721 11.4728 26.6886 11.2606 27.0428C11.0484 27.397 10.7469 27.673 10.394 27.836C10.0412 27.9991 9.65291 28.0417 9.27833 27.9586C8.90375 27.8755 8.55968 27.6704 8.28962 27.3692C8.01956 27.0679 7.83565 26.6842 7.76114 26.2663C7.68664 25.8485 7.72488 25.4155 7.87103 25.0219C8.01718 24.6283 8.26469 24.292 8.58224 24.0553C8.89979 23.8186 9.27313 23.6923 9.65505 23.6923C10.1672 23.6923 10.6583 23.9192 11.0205 24.3232C11.3826 24.7271 11.5861 25.2749 11.5861 25.8462ZM22.2066 23.6923C21.8247 23.6923 21.4514 23.8186 21.1338 24.0553C20.8162 24.292 20.5687 24.6283 20.4226 25.0219C20.2764 25.4155 20.2382 25.8485 20.3127 26.2663C20.3872 26.6842 20.5711 27.0679 20.8412 27.3692C21.1112 27.6704 21.4553 27.8755 21.8299 27.9586C22.2045 28.0417 22.5927 27.9991 22.9456 27.836C23.2984 27.673 23.6 27.397 23.8122 27.0428C24.0244 26.6886 24.1376 26.2721 24.1376 25.8462C24.1376 25.2749 23.9342 24.7271 23.572 24.3232C23.2099 23.9192 22.7188 23.6923 22.2066 23.6923ZM27.9574 6.77788L24.5142 19.2581C24.3338 19.9197 23.9671 20.4988 23.4684 20.9096C22.9697 21.3203 22.3655 21.5409 21.7456 21.5385H10.1463C9.51743 21.5358 8.9063 21.3061 8.40437 20.8836C7.90244 20.4611 7.53672 19.8686 7.36198 19.1948L2.99548 2.15385H0.965505C0.709437 2.15385 0.463857 2.04038 0.28279 1.83842C0.101723 1.63646 0 1.36254 0 1.07692C0 0.791305 0.101723 0.517386 0.28279 0.315423C0.463857 0.113461 0.709437 0 0.965505 0H2.99548C3.41476 0.00155138 3.82232 0.154522 4.15714 0.436016C4.49197 0.71751 4.73606 1.11239 4.85287 1.56154L5.83165 5.38461H27.0341C27.1852 5.38455 27.3342 5.42404 27.4691 5.49991C27.6041 5.57578 27.7211 5.6859 27.8109 5.82142C27.9007 5.95695 27.9608 6.11409 27.9862 6.28021C28.0117 6.44633 28.0018 6.61679 27.9574 6.77788ZM25.7271 7.53846H6.38319L9.21816 18.6038C9.27584 18.8288 9.3976 19.0266 9.56505 19.1675C9.7325 19.3083 9.93652 19.3846 10.1463 19.3846H21.7456C21.9522 19.3847 22.1534 19.3109 22.3195 19.174C22.4857 19.0371 22.6082 18.8443 22.6688 18.624L25.7271 7.53846Z" fill="black"/>
</svg>
