<svg width="25" height="18" viewBox="0 0 25 18" fill="none" xmlns="http://www.w3.org/2000/svg">
<path d="M24.7076 1.70751L8.70757 17.7075C8.6147 17.8005 8.50441 17.8742 8.38301 17.9246C8.26161 17.9749 8.13148 18.0008 8.00007 18.0008C7.86865 18.0008 7.73853 17.9749 7.61713 17.9246C7.49573 17.8742 7.38544 17.8005 7.29257 17.7075L0.292568 10.7075C0.104927 10.5199 -0.000488281 10.2654 -0.000488281 10C-0.000488281 9.73464 0.104927 9.48015 0.292568 9.29251C0.480208 9.10487 0.734704 8.99945 1.00007 8.99945C1.26543 8.99945 1.51993 9.10487 1.70757 9.29251L8.00007 15.5863L23.2926 0.292506C23.4802 0.104866 23.7347 -0.000549318 24.0001 -0.000549316C24.2654 -0.000549314 24.5199 0.104866 24.7076 0.292506C24.8952 0.480147 25.0006 0.734643 25.0006 1.00001C25.0006 1.26537 24.8952 1.51987 24.7076 1.70751Z" fill="#343330"/>
</svg>
