<svg width="14" height="14" viewBox="0 0 14 14" fill="none" xmlns="http://www.w3.org/2000/svg">
<path d="M3.5 1.10526C3.5 0.90984 3.56146 0.722422 3.67085 0.584237C3.78025 0.446053 3.92862 0.368421 4.08333 0.368421H13.4167C13.5714 0.368421 13.7197 0.446053 13.8291 0.584237C13.9385 0.722422 14 0.90984 14 1.10526C14 1.30069 13.9385 1.4881 13.8291 1.62629C13.7197 1.76447 13.5714 1.84211 13.4167 1.84211H4.08333C3.92862 1.84211 3.78025 1.76447 3.67085 1.62629C3.56146 1.4881 3.5 1.30069 3.5 1.10526ZM13.4167 6.26316H4.08333C3.92862 6.26316 3.78025 6.34079 3.67085 6.47897C3.56146 6.61716 3.5 6.80458 3.5 7C3.5 7.19542 3.56146 7.38284 3.67085 7.52103C3.78025 7.65921 3.92862 7.73684 4.08333 7.73684H13.4167C13.5714 7.73684 13.7197 7.65921 13.8291 7.52103C13.9385 7.38284 14 7.19542 14 7C14 6.80458 13.9385 6.61716 13.8291 6.47897C13.7197 6.34079 13.5714 6.26316 13.4167 6.26316ZM13.4167 12.1579H4.08333C3.92862 12.1579 3.78025 12.2355 3.67085 12.3737C3.56146 12.5119 3.5 12.6993 3.5 12.8947C3.5 13.0902 3.56146 13.2776 3.67085 13.4158C3.78025 13.5539 3.92862 13.6316 4.08333 13.6316H13.4167C13.5714 13.6316 13.7197 13.5539 13.8291 13.4158C13.9385 13.2776 14 13.0902 14 12.8947C14 12.6993 13.9385 12.5119 13.8291 12.3737C13.7197 12.2355 13.5714 12.1579 13.4167 12.1579ZM0.875 0C0.701942 0 0.53277 0.0648226 0.388876 0.186271C0.244983 0.307718 0.132832 0.480337 0.0666058 0.682297C0.000379125 0.884258 -0.0169488 1.10649 0.0168133 1.32089C0.0505753 1.53529 0.133911 1.73223 0.256282 1.8868C0.378653 2.04138 0.534563 2.14664 0.704296 2.18929C0.87403 2.23194 1.04996 2.21005 1.20985 2.12639C1.36973 2.04274 1.50639 1.90107 1.60254 1.71931C1.69868 1.53755 1.75 1.32386 1.75 1.10526C1.75 0.812129 1.65781 0.531001 1.49372 0.323724C1.32962 0.116447 1.10706 0 0.875 0ZM0.875 5.89474C0.701942 5.89474 0.53277 5.95956 0.388876 6.08101C0.244983 6.20245 0.132832 6.37507 0.0666058 6.57703C0.000379125 6.77899 -0.0169488 7.00123 0.0168133 7.21563C0.0505753 7.43003 0.133911 7.62696 0.256282 7.78154C0.378653 7.93611 0.534563 8.04138 0.704296 8.08403C0.87403 8.12667 1.04996 8.10478 1.20985 8.02113C1.36973 7.93747 1.50639 7.79581 1.60254 7.61405C1.69868 7.43229 1.75 7.2186 1.75 7C1.75 6.70687 1.65781 6.42574 1.49372 6.21846C1.32962 6.01118 1.10706 5.89474 0.875 5.89474ZM0.875 11.7895C0.701942 11.7895 0.53277 11.8543 0.388876 11.9757C0.244983 12.0972 0.132832 12.2698 0.0666058 12.4718C0.000379125 12.6737 -0.0169488 12.896 0.0168133 13.1104C0.0505753 13.3248 0.133911 13.5217 0.256282 13.6763C0.378653 13.8308 0.534563 13.9361 0.704296 13.9788C0.87403 14.0214 1.04996 13.9995 1.20985 13.9159C1.36973 13.8322 1.50639 13.6905 1.60254 13.5088C1.69868 13.327 1.75 13.1133 1.75 12.8947C1.75 12.6016 1.65781 12.3205 1.49372 12.1132C1.32962 11.9059 1.10706 11.7895 0.875 11.7895Z" fill="black"/>
</svg>
