<svg width="25" height="24" viewBox="0 0 25 24" fill="none" xmlns="http://www.w3.org/2000/svg">
<path d="M13.9442 6.00003V11.4338L18.28 14.1425C18.4983 14.2791 18.6557 14.5004 18.7174 14.7578C18.7791 15.0152 18.74 15.2876 18.6089 15.515C18.4777 15.7424 18.2651 15.9063 18.018 15.9705C17.7708 16.0347 17.5092 15.9941 17.2908 15.8575L12.4893 12.8575C12.3472 12.7686 12.2297 12.6429 12.148 12.4926C12.0664 12.3424 12.0235 12.1727 12.0236 12V6.00003C12.0236 5.73481 12.1248 5.48046 12.3049 5.29292C12.485 5.10539 12.7292 5.00003 12.9839 5.00003C13.2386 5.00003 13.4828 5.10539 13.6629 5.29292C13.843 5.48046 13.9442 5.73481 13.9442 6.00003ZM12.9839 3.7014e-05C11.469 -0.00389242 9.96844 0.305079 8.56899 0.909069C7.16954 1.51306 5.89902 2.40008 4.83095 3.51878C3.95828 4.43878 3.18284 5.32378 2.4206 6.25003V4.00003C2.4206 3.73482 2.31943 3.48046 2.13933 3.29293C1.95924 3.10539 1.71499 3.00003 1.4603 3.00003C1.20561 3.00003 0.961356 3.10539 0.781265 3.29293C0.601174 3.48046 0.5 3.73482 0.5 4.00003V9.00002C0.5 9.26524 0.601174 9.51959 0.781265 9.70713C0.961356 9.89467 1.20561 10 1.4603 10H6.2618C6.51649 10 6.76074 9.89467 6.94083 9.70713C7.12093 9.51959 7.2221 9.26524 7.2221 9.00002C7.2221 8.73481 7.12093 8.48045 6.94083 8.29292C6.76074 8.10538 6.51649 8.00003 6.2618 8.00003H3.50094C4.35921 6.94753 5.21387 5.95628 6.18858 4.92878C7.52322 3.53897 9.22157 2.58954 11.0714 2.19913C12.9213 1.80872 14.8406 1.99463 16.5896 2.73364C18.3385 3.47265 19.8396 4.73199 20.9052 6.35429C21.9707 7.97659 22.5536 9.88992 22.5809 11.8552C22.6082 13.8205 22.0787 15.7506 21.0587 17.4043C20.0386 19.058 18.5732 20.362 16.8454 21.1534C15.1177 21.9448 13.2044 22.1885 11.3445 21.8539C9.48454 21.5194 7.76053 20.6215 6.38784 19.2725C6.2961 19.1822 6.18817 19.1116 6.07023 19.0648C5.9523 19.0179 5.82665 18.9957 5.70047 18.9995C5.57429 19.0032 5.45005 19.0327 5.33484 19.0864C5.21964 19.1402 5.11571 19.217 5.02901 19.3125C4.94232 19.408 4.87454 19.5204 4.82954 19.6432C4.78455 19.7661 4.76323 19.8969 4.7668 20.0283C4.77037 20.1597 4.79875 20.2891 4.85033 20.409C4.90191 20.529 4.97568 20.6372 5.06743 20.7275C6.43519 22.0716 8.09807 23.0467 9.91094 23.5676C11.7238 24.0886 13.6316 24.1396 15.4677 23.7162C17.3039 23.2928 19.0126 22.4079 20.4448 21.1387C21.877 19.8695 22.9892 18.2545 23.6842 16.4348C24.3792 14.615 24.636 12.6458 24.4321 10.699C24.2282 8.75217 23.5698 6.88689 22.5145 5.26595C21.4591 3.645 20.0388 2.31766 18.3775 1.39976C16.7163 0.481867 14.8645 0.00131167 12.9839 3.7014e-05Z" fill="#343330"/>
</svg>
