<svg width="28" height="24" viewBox="0 0 28 24" fill="none" xmlns="http://www.w3.org/2000/svg">
<path d="M27.0613 9.06122L21.0613 15.0612C20.7795 15.343 20.3973 15.5013 19.9988 15.5013C19.6002 15.5013 19.218 15.343 18.9363 15.0612C18.6545 14.7794 18.4961 14.3972 18.4961 13.9987C18.4961 13.6002 18.6545 13.218 18.9363 12.9362L22.375 9.49998H18.625C16.2966 9.49922 14.034 10.2724 12.193 11.6979C10.352 13.1235 9.0371 15.1205 8.455 17.375C8.40575 17.5657 8.31942 17.7449 8.20093 17.9023C8.08244 18.0597 7.93411 18.1922 7.76441 18.2922C7.59471 18.3923 7.40696 18.4579 7.21189 18.4854C7.01682 18.5129 6.81824 18.5017 6.6275 18.4525C6.43675 18.4032 6.25758 18.3169 6.1002 18.1984C5.94282 18.0799 5.81032 17.9316 5.71026 17.7619C5.61021 17.5922 5.54456 17.4044 5.51706 17.2094C5.48956 17.0143 5.50075 16.8157 5.55 16.625C6.29721 13.7259 7.98743 11.1576 10.3545 9.32459C12.7216 7.49156 15.6311 6.49787 18.625 6.49997H22.375L18.9387 3.05998C18.657 2.77818 18.4986 2.39599 18.4986 1.99747C18.4986 1.59896 18.657 1.21677 18.9387 0.934975C19.2205 0.653182 19.6027 0.494873 20.0012 0.494873C20.3998 0.494873 20.782 0.653182 21.0637 0.934975L27.0637 6.93498C27.2036 7.07452 27.3145 7.24032 27.3901 7.42285C27.4657 7.60538 27.5045 7.80105 27.5043 7.99862C27.5041 8.19619 27.4648 8.39177 27.3888 8.57412C27.3127 8.75648 27.2014 8.92201 27.0613 9.06122ZM22 20.5H3.5V5.99997C3.5 5.60215 3.34196 5.22062 3.06066 4.93931C2.77936 4.65801 2.39782 4.49997 2 4.49997C1.60218 4.49997 1.22064 4.65801 0.93934 4.93931C0.658035 5.22062 0.5 5.60215 0.5 5.99997V21C0.5 21.663 0.763392 22.2989 1.23223 22.7677C1.70107 23.2366 2.33696 23.5 3 23.5H22C22.3978 23.5 22.7794 23.3419 23.0607 23.0606C23.342 22.7793 23.5 22.3978 23.5 22C23.5 21.6021 23.342 21.2206 23.0607 20.9393C22.7794 20.658 22.3978 20.5 22 20.5Z" fill="#343330"/>
</svg>
